# xmcd CD database file
#
# Track frame offsets:
#	150
#	27467
#	72775
#	93652
#	120495
#	143005
#	178647
#	213830
#	251270
#	302890
#
# Disc length: 4290 seconds
#
# Revision: 1
# Processed by: cddbd v1.5.1PL0 Copyright (c) Steve Scherf et al.
# Submitted via: CDex 1.50beta9
#
DISCID=8510c00a
DTITLE=Bugs Henderson And The Shuffle Kings - That's The Truth
DYEAR=1995
DGENRE=Rock
TTITLE0=Foreplay
TTITLE1=Take Your Time
TTITLE2=That's The Truth
TTITLE3=Blue Casino
TTITLE4=Look Out
TTITLE5=Heartbreak Gumbo
TTITLE6=Johnny B. Goode
TTITLE7=Good Stuff
TTITLE8=You Can't Sit Down
TTITLE9=Audio Liner Notes
EXTD=YEAR: 1995
EXTT0=
EXTT1=
EXTT2=
EXTT3=
EXTT4=
EXTT5=
EXTT6=
EXTT7=
EXTT8=
EXTT9=
PLAYORDER=
